<svg xmlns="http://www.w3.org/2000/svg" viewBox="0 0 800 980" fill="none">
  <defs>
    <linearGradient id="bg" x1="126" y1="62" x2="642" y2="842" gradientUnits="userSpaceOnUse">
      <stop stop-color="#F8F5EF"/>
      <stop offset="1" stop-color="#EFE6F7"/>
    </linearGradient>
    <radialGradient id="glow1" cx="0" cy="0" r="1" gradientUnits="userSpaceOnUse" gradientTransform="translate(442 212) rotate(90) scale(238 206)">
      <stop stop-color="#B79AD8" stop-opacity=".56"/>
      <stop offset="1" stop-color="#B79AD8" stop-opacity="0"/>
    </radialGradient>
    <radialGradient id="glow2" cx="0" cy="0" r="1" gradientUnits="userSpaceOnUse" gradientTransform="translate(270 608) rotate(90) scale(264 226)">
      <stop stop-color="#A9D8C8" stop-opacity=".58"/>
      <stop offset="1" stop-color="#A9D8C8" stop-opacity="0"/>
    </radialGradient>
  </defs>
  <rect x="110" y="60" width="580" height="820" rx="290" fill="url(#bg)"/>
  <ellipse cx="442" cy="212" rx="206" ry="238" fill="url(#glow1)"/>
  <ellipse cx="270" cy="608" rx="226" ry="264" fill="url(#glow2)"/>
  <path d="M454 228c-46-48-106-78-176-72-88 8-160 70-182 154-16 63-3 132 38 188 57 79 160 120 254 96 62-15 116-59 145-116 33-64 31-144-8-203-17-26-42-44-71-47" stroke="#7B5B99" stroke-width="10" stroke-linecap="round"/>
  <path d="M395 252c-31 37-57 92-42 148 17 66 81 116 148 112 44-2 88-27 114-64 31-44 38-105 17-156-19-46-63-83-112-91-50-8-104 12-125 51Z" fill="#F2C18D" fill-opacity=".18" stroke="#F2C18D" stroke-width="7"/>
  <circle cx="514" cy="265" r="18" fill="#B79AD8"/>
  <circle cx="561" cy="352" r="11" fill="#A9D8C8"/>
  <circle cx="230" cy="521" r="14" fill="#F2C18D"/>
  <path d="M316 344c26-14 61-17 93-4 38 14 72 52 77 93 7 51-24 105-72 126-41 18-96 8-128-25-41-41-48-108-15-157 11-16 26-28 45-33Z" fill="#F8F5EF" stroke="#43334D" stroke-opacity=".16" stroke-width="3"/>
  <path d="M418 422c0 74-47 138-113 163 18 8 39 12 60 12 92 0 166-74 166-166 0-52-24-99-61-129-32 28-52 69-52 120Z" fill="#B79AD8" fill-opacity=".18"/>
</svg>
