<svg xmlns="http://www.w3.org/2000/svg" viewBox="0 0 512 512" fill="none">
  <g opacity=".9">
    <circle cx="256" cy="256" r="148" stroke="#D7B066" stroke-width="10"/>
    <circle cx="256" cy="256" r="102" stroke="#B59AD8" stroke-width="8" opacity=".82"/>

    <path
      d="M256 126L272 202L348 218L272 234L256 310L240 234L164 218L240 202L256 126Z"
      stroke="#8B72AF"
      stroke-width="16"
      stroke-linecap="round"
      stroke-linejoin="round"
    />

    <path
      d="M318 166C280 172 252 205 252 244C252 283 280 316 318 322C295 306 282 281 282 244C282 207 295 182 318 166Z"
      fill="#F1D4A1"
      opacity=".94"
    />

    <circle cx="256" cy="256" r="18" fill="#FBF7F0"/>

    <circle cx="256" cy="84" r="11" fill="#B59AD8"/>
    <circle cx="428" cy="256" r="11" fill="#D7B066"/>
    <circle cx="256" cy="428" r="11" fill="#B59AD8"/>
    <circle cx="84" cy="256" r="11" fill="#D7B066"/>

    <circle cx="152" cy="152" r="7" fill="#F3DEC2"/>
    <circle cx="360" cy="152" r="7" fill="#F3DEC2"/>
    <circle cx="360" cy="360" r="7" fill="#F3DEC2"/>
    <circle cx="152" cy="360" r="7" fill="#F3DEC2"/>
  </g>
</svg>
