<svg xmlns="http://www.w3.org/2000/svg" viewBox="0 0 980 180" fill="none">
  <defs>
    <mask id="phase-crescent-left-sm" maskUnits="userSpaceOnUse">
      <rect width="980" height="180" fill="black"/>
      <circle cx="270" cy="90" r="12" fill="white"/>
      <circle cx="277.5" cy="90" r="11.2" fill="black"/>
    </mask>
    <mask id="phase-half-left-md" maskUnits="userSpaceOnUse">
      <rect width="980" height="180" fill="black"/>
      <circle cx="326" cy="90" r="18" fill="white"/>
      <circle cx="334.5" cy="90" r="17.2" fill="black"/>
    </mask>
    <mask id="phase-gibbous-left-lg" maskUnits="userSpaceOnUse">
      <rect width="980" height="180" fill="black"/>
      <circle cx="392" cy="90" r="24" fill="white"/>
      <circle cx="402" cy="90" r="18.5" fill="black"/>
    </mask>
    <mask id="phase-gibbous-right-lg" maskUnits="userSpaceOnUse">
      <rect width="980" height="180" fill="black"/>
      <circle cx="588" cy="90" r="24" fill="white"/>
      <circle cx="578" cy="90" r="18.5" fill="black"/>
    </mask>
    <mask id="phase-half-right-md" maskUnits="userSpaceOnUse">
      <rect width="980" height="180" fill="black"/>
      <circle cx="654" cy="90" r="18" fill="white"/>
      <circle cx="645.5" cy="90" r="17.2" fill="black"/>
    </mask>
    <mask id="phase-crescent-right-sm" maskUnits="userSpaceOnUse">
      <rect width="980" height="180" fill="black"/>
      <circle cx="710" cy="90" r="12" fill="white"/>
      <circle cx="702.5" cy="90" r="11.2" fill="black"/>
    </mask>
  </defs>

  <g fill="#8C78A7">
    <rect x="258" y="78" width="24" height="24" mask="url(#phase-crescent-left-sm)" opacity="0.92"/>
    <rect x="308" y="72" width="36" height="36" mask="url(#phase-half-left-md)" opacity="0.94"/>
    <rect x="368" y="66" width="48" height="48" mask="url(#phase-gibbous-left-lg)" opacity="0.96"/>
    <circle cx="490" cy="90" r="30"/>
    <rect x="564" y="66" width="48" height="48" mask="url(#phase-gibbous-right-lg)" opacity="0.96"/>
    <rect x="636" y="72" width="36" height="36" mask="url(#phase-half-right-md)" opacity="0.94"/>
    <rect x="698" y="78" width="24" height="24" mask="url(#phase-crescent-right-sm)" opacity="0.92"/>
  </g>
</svg>
